<svg width="48" height="38" viewBox="0 0 48 38" fill="none" xmlns="http://www.w3.org/2000/svg">
<path d="M4.8 38C3.48 38 2.3504 37.5353 1.4112 36.6059C0.472 35.6765 0.0016 34.5578 0 33.25V4.75C0 3.44375 0.4704 2.32592 1.4112 1.3965C2.352 0.467083 3.4816 0.00158333 4.8 0H43.2C44.52 0 45.6504 0.4655 46.5912 1.3965C47.532 2.3275 48.0016 3.44533 48 4.75V33.25C48 34.5562 47.5304 35.6749 46.5912 36.6059C45.652 37.5369 44.5216 38.0016 43.2 38H4.8ZM24 21.375L4.8 9.5V33.25H43.2V9.5L24 21.375ZM24 16.625L43.2 4.75H4.8L24 16.625ZM4.8 9.5V4.75V33.25V9.5Z" fill="black"/>
</svg>
