<svg width="56" height="56" viewBox="0 0 56 56" fill="none" xmlns="http://www.w3.org/2000/svg">
<path d="M28.0028 19.6C25.775 19.6 23.6384 20.485 22.0631 22.0603C20.4878 23.6356 19.6028 25.7722 19.6028 28C19.6028 30.2278 20.4878 32.3644 22.0631 33.9397C23.6384 35.515 25.775 36.4 28.0028 36.4C30.2306 36.4 32.3672 35.515 33.9425 33.9397C35.5178 32.3644 36.4028 30.2278 36.4028 28C36.4028 25.7722 35.5178 23.6356 33.9425 22.0603C32.3672 20.485 30.2306 19.6 28.0028 19.6ZM28.0028 14C31.7158 14 35.2768 15.475 37.9023 18.1005C40.5278 20.726 42.0028 24.287 42.0028 28C42.0028 31.713 40.5278 35.274 37.9023 37.8995C35.2768 40.525 31.7158 42 28.0028 42C24.2898 42 20.7288 40.525 18.1033 37.8995C15.4778 35.274 14.0028 31.713 14.0028 28C14.0028 24.287 15.4778 20.726 18.1033 18.1005C20.7288 15.475 24.2898 14 28.0028 14ZM46.2028 13.3C46.2028 14.2283 45.8341 15.1185 45.1777 15.7749C44.5213 16.4313 43.6311 16.8 42.7028 16.8C41.7745 16.8 40.8843 16.4313 40.2279 15.7749C39.5715 15.1185 39.2028 14.2283 39.2028 13.3C39.2028 12.3717 39.5715 11.4815 40.2279 10.8251C40.8843 10.1687 41.7745 9.8 42.7028 9.8C43.6311 9.8 44.5213 10.1687 45.1777 10.8251C45.8341 11.4815 46.2028 12.3717 46.2028 13.3ZM28.0028 5.6C21.0756 5.6 19.9444 5.6196 16.7216 5.7624C14.5264 5.866 13.0536 6.16 11.6872 6.692C10.5443 7.11304 9.51082 7.78578 8.6632 8.6604C7.78756 9.50773 7.11385 10.5413 6.692 11.6844C6.16 13.0564 5.866 14.5264 5.7652 16.7188C5.6196 19.81 5.6 20.8908 5.6 28C5.6 34.93 5.6196 36.0584 5.7624 39.2812C5.866 41.4736 6.16 42.9492 6.6892 44.3128C7.1652 45.5308 7.7252 46.4072 8.6548 47.3368C9.5984 48.2776 10.4748 48.8404 11.6788 49.3052C13.062 49.84 14.5348 50.1368 16.7188 50.2376C19.81 50.3832 20.8908 50.4 28 50.4C34.93 50.4 36.0584 50.3804 39.2812 50.2376C41.4708 50.134 42.9436 49.84 44.3128 49.3108C45.4557 48.8898 46.4892 48.217 47.3368 47.3424C48.2804 46.4016 48.8432 45.5252 49.308 44.3184C49.84 42.9408 50.1368 41.468 50.2376 39.2784C50.3832 36.19 50.4 35.1064 50.4 28C50.4 21.0728 50.3804 19.9416 50.2376 16.7188C50.134 14.5292 49.8372 13.0508 49.308 11.6844C48.887 10.5415 48.2142 9.50802 47.3396 8.6604C46.4923 7.78477 45.4587 7.11105 44.3156 6.6892C42.9436 6.1572 41.4708 5.8632 39.2812 5.7624C36.1928 5.6168 35.112 5.6 28 5.6M28 0C35.6076 0 36.5568 0.0279998 39.5444 0.168C42.5236 0.308 44.5564 0.7756 46.34 1.47C48.188 2.1812 49.7448 3.1444 51.3016 4.6984C52.7259 6.09765 53.8277 7.79092 54.53 9.66C55.2216 11.4436 55.692 13.4764 55.832 16.4584C55.9636 19.4432 56 20.3924 56 28C56 35.6076 55.972 36.5568 55.832 39.5416C55.692 42.5264 55.2216 44.5536 54.53 46.34C53.8277 48.2091 52.7259 49.9024 51.3016 51.3016C49.9024 52.7259 48.2091 53.8277 46.34 54.53C44.5564 55.2216 42.5236 55.692 39.5444 55.832C36.5568 55.9636 35.6076 56 28 56C20.3924 56 19.4432 55.972 16.4556 55.832C13.4764 55.692 11.4464 55.2216 9.66 54.53C7.79092 53.8277 6.09765 52.7259 4.6984 51.3016C3.27406 49.9024 2.17228 48.2091 1.47 46.34C0.7756 44.5564 0.308 42.5236 0.168 39.5416C0.0335998 36.5568 0 35.6076 0 28C0 20.3924 0.0279998 19.4432 0.168 16.4584C0.308 13.4736 0.7756 11.4464 1.47 9.66C2.17228 7.79092 3.27406 6.09765 4.6984 4.6984C6.09765 3.27406 7.79092 2.17228 9.66 1.47C11.4436 0.7756 13.4736 0.308 16.4556 0.168C19.446 0.0363998 20.3952 0 28.0028 0" fill="black"/>
</svg>
