<svg width="303" height="46" viewBox="0 0 303 46" fill="none" xmlns="http://www.w3.org/2000/svg">
<path d="M5.50396 44.608C4.69329 44.6507 3.90396 44.3734 3.13596 43.776C2.41063 43.2214 1.94129 42.3894 1.72796 41.28C1.17329 41.1947 0.746627 40.6187 0.44796 39.552C0.149294 38.4854 -3.98159e-05 37.312 -3.98159e-05 36.032C-3.98159e-05 35.008 0.106627 34.0267 0.31996 33.088C0.57596 32.1494 0.95996 31.4667 1.47196 31.04C1.98396 29.9734 2.64529 28.928 3.45596 27.904C4.30929 26.8374 5.20529 25.92 6.14396 25.152C7.12529 24.384 8.06396 23.9147 8.95996 23.744C9.34396 23.7014 9.85596 23.8294 10.496 24.128C11.1786 24.384 11.52 25.0027 11.52 25.984C12.2453 26.496 12.928 26.9014 13.568 27.2C14.2506 27.456 14.528 27.776 14.4 28.16V28.352C14.4 28.48 14.4 28.608 14.4 28.736C14.4426 28.864 14.464 29.0347 14.464 29.248C14.464 29.5467 14.3573 29.9094 14.144 30.336C13.9306 30.72 13.3973 31.2107 12.544 31.808C12.2453 32.0214 11.9466 32.128 11.648 32.128C11.392 32.128 11.264 31.9787 11.264 31.68C11.264 31.3387 11.4773 30.8054 11.904 30.08C12.2026 29.568 12.352 29.0987 12.352 28.672C12.352 28.1174 12.0533 27.9254 11.456 28.096C10.56 28.3947 9.57863 28.992 8.51196 29.888C7.48796 30.784 6.48529 31.8507 5.50396 33.088C4.52263 34.3254 3.71196 35.6267 3.07196 36.992C3.07196 37.0774 3.02929 37.248 2.94396 37.504C2.90129 37.9307 2.85863 38.272 2.81596 38.528C2.77329 38.7414 2.75196 39.0827 2.75196 39.552C2.75196 40.064 2.90129 40.6827 3.19996 41.408C3.49863 42.1334 3.86129 42.4107 4.28796 42.24C5.18396 41.984 6.16529 41.472 7.23196 40.704C8.29863 39.8934 9.36529 38.976 10.432 37.952C11.4986 36.8854 12.48 35.8614 13.376 34.88C14.272 33.856 14.9973 33.0027 15.552 32.32C16.4906 31.168 17.5786 29.696 18.816 27.904C20.0533 26.0694 21.3546 24.1067 22.72 22.016C24.0853 19.9254 25.3866 17.8347 26.624 15.744C27.904 13.6534 29.0346 11.712 30.016 9.92004C30.9973 8.12804 31.7013 6.67738 32.128 5.56804C31.9573 5.52538 31.7866 5.50404 31.616 5.50404C31.4453 5.50404 31.2533 5.50404 31.04 5.50404C29.5893 5.50404 27.9466 5.73871 26.112 6.20805C24.32 6.63471 22.6773 7.10404 21.184 7.61604C20.8853 7.74404 20.2666 8.06404 19.328 8.57605C18.3893 9.08804 17.3866 9.74938 16.32 10.56C15.2533 11.3707 14.2933 12.288 13.44 13.312C12.5866 14.2934 12.0533 15.3387 11.84 16.448C11.8826 16.576 11.904 16.704 11.904 16.832C11.9466 16.96 11.968 17.088 11.968 17.216C11.968 17.8987 11.648 18.24 11.008 18.24C10.4533 18.24 9.83463 17.8987 9.15196 17.216C8.51196 16.5334 8.19196 15.5734 8.19196 14.336C8.19196 12.8427 8.46929 11.648 9.02396 10.752C9.62129 9.81338 9.94129 9.32271 9.98396 9.28004L10.56 8.76804C12.096 7.61604 13.4186 6.65604 14.528 5.88804C15.68 5.12004 16.768 4.54405 17.792 4.16005C18.8586 3.73338 20.0106 3.43471 21.248 3.26405C22.4853 3.09338 24 3.00805 25.792 3.00805C27.84 3.00805 30.08 3.32804 32.512 3.96804C32.4693 3.92538 32.4266 3.88271 32.384 3.84005C32.3413 3.79738 32.2986 3.75471 32.256 3.71204C33.1093 3.88271 33.92 4.18138 34.688 4.60804C34.8586 4.60804 34.944 4.54404 34.944 4.41604C34.944 4.24538 34.8373 4.11738 34.624 4.03204C34.1973 3.90405 33.7706 3.77605 33.344 3.64804C32.9173 3.52004 32.4906 3.41338 32.064 3.32804L32.256 3.71204C29.9946 3.11471 27.5626 2.81604 24.96 2.81604C24.1493 2.81604 23.36 2.85871 22.592 2.94404C21.8666 2.98671 21.184 3.05071 20.544 3.13604C20.3733 3.17871 20.2026 3.22138 20.032 3.26405C20.032 3.26405 20.0533 3.26405 20.096 3.26405C20.1386 3.26405 20.288 3.22138 20.544 3.13604C21.3546 3.00804 22.1866 2.90138 23.04 2.81604C23.936 2.68804 24.832 2.62404 25.728 2.62404C26.752 2.62404 27.7973 2.68804 28.864 2.81604C29.9306 2.94404 30.9973 3.11471 32.064 3.32804C32.0213 3.20004 31.9786 3.07204 31.936 2.94404C31.936 2.81604 31.936 2.70938 31.936 2.62404C31.936 1.85604 32.256 1.38671 32.896 1.21605C33.024 1.17338 33.1306 1.15204 33.216 1.15204C33.344 1.10938 33.472 1.08804 33.6 1.08804C34.4106 1.08804 35.1573 1.38671 35.84 1.98404C36.5653 2.58138 36.9493 3.30671 36.992 4.16005C37.76 4.58671 38.144 5.18405 38.144 5.95205C38.144 6.67738 37.8666 7.48804 37.312 8.38404C36.8 9.28004 36.1813 10.1334 35.456 10.944C34.7733 11.7547 34.1546 12.4374 33.6 12.992C32.576 14.6987 31.552 16.4054 30.528 18.112C29.5466 19.776 28.7146 21.1627 28.032 22.272C27.3493 23.3814 27.008 23.9787 27.008 24.064C27.008 24.1494 27.52 23.4027 28.544 21.824C28.8853 21.312 29.3333 20.6294 29.888 19.776C30.4426 18.9227 30.976 18.0694 31.488 17.216C32.0426 16.32 32.4906 15.5947 32.832 15.04C33.1733 14.4427 33.344 14.1654 33.344 14.208C32.96 14.848 32.384 15.8507 31.616 17.216C30.8906 18.5814 30.016 20.1174 28.992 21.824C28.0106 23.488 26.944 25.152 25.792 26.816C28.5653 26.048 31.2106 25.0027 33.728 23.68C36.2453 22.3147 38.7413 20.7574 41.216 19.008C42.0693 18.4107 43.1573 17.5147 44.48 16.32C45.8026 15.1254 47.1253 13.8027 48.448 12.352C49.7706 10.9014 50.88 9.49338 51.776 8.12804C52.672 6.76271 53.12 5.58938 53.12 4.60804C53.12 4.18138 53.0346 3.77604 52.864 3.39204C52.736 3.00804 52.672 2.66671 52.672 2.36805C52.672 2.06938 52.8 1.85604 53.056 1.72804C53.312 1.55738 53.8026 1.47205 54.528 1.47205C55.424 1.47205 56.192 1.98405 56.832 3.00805C57.5146 3.98938 57.856 5.16271 57.856 6.52805C57.856 8.02138 57.3653 9.55738 56.384 11.136C55.4453 12.7147 54.1653 14.272 52.544 15.808C50.9226 17.344 49.1093 18.7947 47.104 20.16C48.64 19.1787 50.176 18.0907 51.712 16.896C53.2906 15.6587 54.6133 14.3574 55.68 12.992C54.4853 14.6987 53.1413 16.192 51.648 17.472C50.1973 18.752 48.5333 19.968 46.656 21.12C44.7786 22.2294 42.624 23.4454 40.192 24.768C39.68 25.0667 39.0186 25.3654 38.208 25.664C37.3973 25.92 36.5013 26.2187 35.52 26.56C37.44 25.8347 39.3813 24.9174 41.344 23.808C43.3493 22.656 45.2693 21.44 47.104 20.16C45.6533 21.0987 44.3093 21.888 43.072 22.528C41.8346 23.168 40.96 23.6374 40.448 23.936C39.4666 24.4907 38.3786 25.0027 37.184 25.472C35.9893 25.9414 34.8586 26.3467 33.792 26.688C32.7253 27.0294 31.872 27.3067 31.232 27.52L26.176 29.248H26.432L25.728 29.44C25.6426 29.44 25.792 29.376 26.176 29.248C25.536 29.2907 25.0026 29.2907 24.576 29.248C27.0933 32.576 29.184 34.816 30.848 35.968C32.512 37.0774 33.856 37.632 34.88 37.632C35.8613 37.632 36.608 37.376 37.12 36.864C37.632 36.3094 37.9946 35.904 38.208 35.648C38.5493 35.2214 38.912 35.008 39.296 35.008C39.4666 35.008 39.552 35.0934 39.552 35.264C39.552 35.3067 39.5306 35.3707 39.488 35.456C39.488 35.5414 39.4666 35.648 39.424 35.776C39.168 36.4587 38.72 37.2054 38.08 38.016C37.44 38.8267 36.736 39.5947 35.968 40.32C36.1813 40.448 36.3733 40.6614 36.544 40.96C36.7146 41.1734 36.5226 41.5147 35.968 41.984C35.4133 42.496 34.7733 42.9227 34.048 43.264C33.3226 43.648 32.7893 43.7974 32.448 43.712C31.296 43.4134 30.528 43.0507 30.144 42.624C29.8026 42.24 29.6106 41.856 29.568 41.472C28.3733 40.5334 27.1146 39.168 25.792 37.376C24.4693 35.5414 23.5093 33.3867 22.912 30.912C22.016 32.2347 21.0133 33.664 19.904 35.2C18.8373 36.6934 17.6 38.1227 16.192 39.488C14.8266 40.8534 13.2693 42.0054 11.52 42.944C9.77063 43.8827 7.76529 44.4374 5.50396 44.608ZM10.304 8.89605C10.3893 8.81071 10.56 8.57604 10.816 8.19204C11.072 7.76538 11.264 7.48804 11.392 7.36004C12.3733 6.37871 13.376 5.65338 14.4 5.18404C15.424 4.67204 16.5546 4.22404 17.792 3.84005L18.432 3.64804C18.2186 3.69071 17.6213 3.94671 16.64 4.41604C15.6586 4.88538 14.5706 5.50404 13.376 6.27205C12.224 7.04005 11.2 7.91471 10.304 8.89605ZM26.432 29.248C27.2853 29.0347 28.4586 28.736 29.952 28.352C31.4453 27.968 32.96 27.4987 34.496 26.944C32.9173 27.4987 31.4453 27.9894 30.08 28.416C28.7146 28.8427 27.4986 29.12 26.432 29.248ZM47.4825 42.56C47.2265 42.56 46.8211 42.2614 46.2665 41.664C45.7545 41.1094 45.2211 40.4907 44.6665 39.808C44.1545 39.0827 43.7705 38.5494 43.5145 38.208C43.8985 36.544 44.5598 34.816 45.4985 33.024C46.4798 31.1894 47.6105 29.3974 48.8905 27.648C50.1705 25.8987 51.4505 24.2774 52.7305 22.784C54.0531 21.2907 55.2051 20.032 56.1865 19.008C55.4611 19.5627 54.6931 20.288 53.8825 21.184C53.0718 22.0374 52.5171 22.6134 52.2185 22.912C51.7065 23.424 51.1945 23.936 50.6825 24.448C50.1705 24.9174 49.7011 25.3867 49.2745 25.856C50.5545 24.2774 51.8131 22.8267 53.0505 21.504C54.3305 20.1814 55.2478 19.3067 55.8025 18.88C55.9305 18.752 56.1011 18.6027 56.3145 18.432C56.5705 18.2614 56.8478 18.1547 57.1465 18.112L57.6585 17.536C58.8105 17.5787 60.0478 17.9414 61.3705 18.624C62.6931 19.264 63.8238 20.1174 64.7625 21.184C65.7438 22.208 66.2558 23.3814 66.2985 24.704C66.2985 24.8747 66.2131 25.0454 66.0425 25.216C65.8718 25.344 65.7438 25.2587 65.6585 24.96C65.3598 24.32 65.0185 23.744 64.6345 23.232C64.2505 22.72 63.8238 22.3147 63.3545 22.016C62.9278 21.76 62.4798 21.632 62.0105 21.632C61.4985 21.632 61.0291 21.8027 60.6025 22.144C59.7491 22.784 58.7251 23.744 57.5305 25.024C56.3785 26.2614 55.2051 27.6054 54.0105 29.056C52.8585 30.5067 51.8131 31.9147 50.8745 33.28C49.9785 34.6454 49.3598 35.776 49.0185 36.672C49.2745 36.3734 49.7225 35.9467 50.3625 35.392C51.0025 34.8374 51.6851 34.2827 52.4105 33.728C53.1358 33.1307 53.7545 32.64 54.2665 32.256C54.4371 32.128 54.7998 31.872 55.3545 31.488C55.9091 31.104 56.4851 30.6987 57.0825 30.272C57.7225 29.8454 58.2345 29.5254 58.6185 29.312C58.6185 29.3974 58.3625 29.632 57.8505 30.016C57.3811 30.4 56.8051 30.8267 56.1225 31.296C55.4398 31.7654 54.7998 32.192 54.2025 32.576C53.6478 32.96 53.3065 33.216 53.1785 33.344C52.7091 33.7707 52.1545 34.2614 51.5145 34.816C50.9171 35.3707 50.3625 35.8827 49.8505 36.352C49.3385 36.8214 48.9971 37.1627 48.8265 37.376C48.7411 37.5467 48.7198 37.6534 48.7625 37.696C48.8051 37.7387 48.8905 37.6747 49.0185 37.504C49.4025 36.9494 49.9785 36.352 50.7465 35.712C51.5145 35.072 52.3465 34.432 53.2425 33.792C54.1811 33.1094 55.0131 32.4907 55.7385 31.936C56.5918 31.296 57.3598 30.7414 58.0425 30.272C58.7678 29.76 59.4078 29.2907 59.9625 28.864C60.0051 27.968 60.3251 27.3494 60.9225 27.008C61.5625 26.6667 62.0531 26.56 62.3945 26.688C62.6505 26.7734 63.0345 26.944 63.5465 27.2C64.1011 27.4134 64.5918 27.6907 65.0185 28.032C65.4451 28.3307 65.5731 28.672 65.4025 29.056C65.1038 29.7387 64.8691 30.8054 64.6985 32.256C64.5705 33.664 64.5065 34.9654 64.5065 36.16C64.5065 37.8667 65.0398 38.72 66.1065 38.72C66.6611 38.72 67.4078 38.4214 68.3465 37.824C68.6878 37.6107 68.9438 37.504 69.1145 37.504C69.2425 37.504 69.3065 37.568 69.3065 37.696C69.3065 37.8667 69.1998 38.1227 68.9865 38.464C68.7731 38.7627 68.6238 38.9547 68.5385 39.04C68.0265 39.5947 67.4078 40.1067 66.6825 40.576C65.9998 41.0027 65.2958 41.216 64.5705 41.216C64.2718 41.216 63.9731 41.1734 63.6745 41.088C63.3758 41.0027 63.0771 40.8534 62.7785 40.64C61.7118 39.9147 60.9438 38.8054 60.4745 37.312C60.0478 35.8187 59.8345 34.5387 59.8345 33.472C59.8345 33.216 59.8345 32.9814 59.8345 32.768C59.8771 32.5547 59.9198 32.3627 59.9625 32.192C59.4931 32.576 58.7038 33.2374 57.5945 34.176C56.5278 35.072 55.3331 36.096 54.0105 37.248C52.6878 38.3574 51.4291 39.4027 50.2345 40.384C49.0398 41.3654 48.1225 42.0907 47.4825 42.56ZM71.177 41.472C70.4516 41.3867 69.8756 40.9814 69.449 40.256C69.0223 39.488 68.809 38.7627 68.809 38.08C68.809 37.5254 69.1076 36.6507 69.705 35.456C70.345 34.2614 71.1343 32.9174 72.073 31.424C73.0543 29.888 74.057 28.3947 75.081 26.944C76.1476 25.4507 77.0863 24.128 77.897 22.976C78.7503 21.824 79.3476 21.0134 79.689 20.544C79.1343 21.056 78.6223 21.568 78.153 22.08C77.6836 22.592 77.4063 22.848 77.321 22.848C77.2783 22.848 77.4916 22.464 77.961 21.696C78.473 20.8854 79.4543 19.4347 80.905 17.344C81.3316 17.344 81.8436 17.5787 82.441 18.048C83.0383 18.5174 83.5716 19.0507 84.041 19.648C84.5103 20.2454 84.745 20.7574 84.745 21.184C84.2756 21.952 83.529 22.9334 82.505 24.128C81.5236 25.28 80.4783 26.4747 79.369 27.712C78.3023 28.9494 77.3423 30.08 76.489 31.104C76.617 30.976 77.129 30.528 78.025 29.76C78.9636 28.992 80.1156 28.032 81.481 26.88C82.8463 25.728 84.297 24.512 85.833 23.232C87.4116 21.952 88.905 20.7574 90.313 19.648C91.721 18.496 92.9156 17.5787 93.897 16.896C94.921 16.1707 95.561 15.808 95.817 15.808C96.073 15.808 96.4356 16.064 96.905 16.576C97.417 17.0454 97.8863 17.5787 98.313 18.176C98.7396 18.7734 98.953 19.264 98.953 19.648C98.953 19.6907 98.633 20.0534 97.993 20.736C97.3956 21.4187 96.6276 22.2934 95.689 23.36C94.793 24.384 93.897 25.472 93.001 26.624C92.105 27.7334 91.337 28.7787 90.697 29.76C90.0996 30.7414 89.8223 31.4667 89.865 31.936C89.4383 31.8507 89.0756 31.4667 88.777 30.784C88.4783 30.0587 88.329 29.248 88.329 28.352C88.329 27.84 88.4783 27.2214 88.777 26.496C89.1183 25.7707 89.481 25.0667 89.865 24.384C90.2916 23.7014 90.6543 23.104 90.953 22.592C91.2943 22.08 91.465 21.8027 91.465 21.76C91.209 22.0587 90.8463 22.5494 90.377 23.232C89.9503 23.9147 89.5236 24.5974 89.097 25.28C88.713 25.92 88.457 26.3894 88.329 26.688C88.457 26.176 88.8196 25.344 89.417 24.192C90.0143 23.04 90.8036 21.888 91.785 20.736C91.3156 21.1627 90.505 21.888 89.353 22.912C88.2436 23.8934 86.9636 25.0667 85.513 26.432C84.0623 27.7974 82.5476 29.2267 80.969 30.72C79.433 32.1707 77.961 33.6 76.553 35.008C75.145 36.416 73.9503 37.696 72.969 38.848C72.0303 39.9574 71.433 40.832 71.177 41.472ZM95.545 42.56C95.289 42.56 94.8836 42.2614 94.329 41.664C93.817 41.1094 93.2836 40.4907 92.729 39.808C92.217 39.0827 91.833 38.5494 91.577 38.208C91.961 36.544 92.6223 34.816 93.561 33.024C94.5423 31.1894 95.673 29.3974 96.953 27.648C98.233 25.8987 99.513 24.2774 100.793 22.784C102.116 21.2907 103.268 20.032 104.249 19.008C103.524 19.5627 102.756 20.288 101.945 21.184C101.134 22.0374 100.58 22.6134 100.281 22.912C99.769 23.424 99.257 23.936 98.745 24.448C98.233 24.9174 97.7636 25.3867 97.337 25.856C98.617 24.2774 99.8756 22.8267 101.113 21.504C102.393 20.1814 103.31 19.3067 103.865 18.88C103.993 18.752 104.164 18.6027 104.377 18.432C104.633 18.2614 104.91 18.1547 105.209 18.112L105.721 17.536C106.873 17.5787 108.11 17.9414 109.433 18.624C110.756 19.264 111.886 20.1174 112.825 21.184C113.806 22.208 114.318 23.3814 114.361 24.704C114.361 24.8747 114.276 25.0454 114.105 25.216C113.934 25.344 113.806 25.2587 113.721 24.96C113.422 24.32 113.081 23.744 112.697 23.232C112.313 22.72 111.886 22.3147 111.417 22.016C110.99 21.76 110.542 21.632 110.073 21.632C109.561 21.632 109.092 21.8027 108.665 22.144C107.812 22.784 106.788 23.744 105.593 25.024C104.441 26.2614 103.268 27.6054 102.073 29.056C100.921 30.5067 99.8756 31.9147 98.937 33.28C98.041 34.6454 97.4223 35.776 97.081 36.672C97.337 36.3734 97.785 35.9467 98.425 35.392C99.065 34.8374 99.7476 34.2827 100.473 33.728C101.198 33.1307 101.817 32.64 102.329 32.256C102.5 32.128 102.862 31.872 103.417 31.488C103.972 31.104 104.548 30.6987 105.145 30.272C105.785 29.8454 106.297 29.5254 106.681 29.312C106.681 29.3974 106.425 29.632 105.913 30.016C105.444 30.4 104.868 30.8267 104.185 31.296C103.502 31.7654 102.862 32.192 102.265 32.576C101.71 32.96 101.369 33.216 101.241 33.344C100.772 33.7707 100.217 34.2614 99.577 34.816C98.9796 35.3707 98.425 35.8827 97.913 36.352C97.401 36.8214 97.0596 37.1627 96.889 37.376C96.8036 37.5467 96.7823 37.6534 96.825 37.696C96.8676 37.7387 96.953 37.6747 97.081 37.504C97.465 36.9494 98.041 36.352 98.809 35.712C99.577 35.072 100.409 34.432 101.305 33.792C102.244 33.1094 103.076 32.4907 103.801 31.936C104.654 31.296 105.422 30.7414 106.105 30.272C106.83 29.76 107.47 29.2907 108.025 28.864C108.068 27.968 108.388 27.3494 108.985 27.008C109.625 26.6667 110.116 26.56 110.457 26.688C110.713 26.7734 111.097 26.944 111.609 27.2C112.164 27.4134 112.654 27.6907 113.081 28.032C113.508 28.3307 113.636 28.672 113.465 29.056C113.166 29.7387 112.932 30.8054 112.761 32.256C112.633 33.664 112.569 34.9654 112.569 36.16C112.569 37.8667 113.102 38.72 114.169 38.72C114.724 38.72 115.47 38.4214 116.409 37.824C116.75 37.6107 117.006 37.504 117.177 37.504C117.305 37.504 117.369 37.568 117.369 37.696C117.369 37.8667 117.262 38.1227 117.049 38.464C116.836 38.7627 116.686 38.9547 116.601 39.04C116.089 39.5947 115.47 40.1067 114.745 40.576C114.062 41.0027 113.358 41.216 112.633 41.216C112.334 41.216 112.036 41.1734 111.737 41.088C111.438 41.0027 111.14 40.8534 110.841 40.64C109.774 39.9147 109.006 38.8054 108.537 37.312C108.11 35.8187 107.897 34.5387 107.897 33.472C107.897 33.216 107.897 32.9814 107.897 32.768C107.94 32.5547 107.982 32.3627 108.025 32.192C107.556 32.576 106.766 33.2374 105.657 34.176C104.59 35.072 103.396 36.096 102.073 37.248C100.75 38.3574 99.4916 39.4027 98.297 40.384C97.1023 41.3654 96.185 42.0907 95.545 42.56ZM119.239 41.472C118.514 41.3867 117.938 40.9814 117.511 40.256C117.085 39.488 116.871 38.7627 116.871 38.08C116.871 37.5254 117.213 36.6294 117.895 35.392C118.578 34.112 119.431 32.6827 120.455 31.104C121.522 29.4827 122.61 27.8827 123.719 26.304C124.871 24.7254 125.895 23.3387 126.791 22.144C127.687 20.9067 128.306 20.0534 128.647 19.584C127.581 20.7787 126.706 21.7814 126.023 22.592C125.383 23.36 125.021 23.744 124.935 23.744C124.893 23.744 125.234 23.1894 125.959 22.08C126.727 20.9707 128.029 19.072 129.863 16.384C130.29 16.384 130.823 16.576 131.463 16.96C132.103 17.344 132.679 17.792 133.191 18.304C133.746 18.7734 134.023 19.2214 134.023 19.648C133.639 20.2454 133.063 21.0347 132.295 22.016C131.527 22.9974 130.653 24.0427 129.671 25.152C128.69 26.2614 127.751 27.3494 126.855 28.416C125.959 29.44 125.191 30.336 124.551 31.104C124.679 30.976 125.17 30.5707 126.023 29.888C126.877 29.2054 127.943 28.352 129.223 27.328C130.503 26.2614 131.847 25.1734 133.255 24.064C134.706 22.912 136.093 21.8454 137.415 20.864C138.738 19.84 139.869 19.008 140.807 18.368C141.746 17.728 142.343 17.408 142.599 17.408C142.813 17.408 143.111 17.5787 143.495 17.92C143.879 18.2614 144.263 18.688 144.647 19.2C145.074 19.6694 145.394 20.1387 145.607 20.608C145.821 21.0347 145.842 21.3334 145.671 21.504C145.415 21.76 144.797 22.4 143.815 23.424C142.877 24.448 141.767 25.664 140.487 27.072C139.25 28.48 138.055 29.888 136.903 31.296C135.794 32.6614 134.941 33.8347 134.343 34.816L138.823 32C139.165 31.7867 139.165 31.808 138.823 32.064C138.482 32.32 138.055 32.64 137.543 33.024C137.031 33.408 136.647 33.7067 136.391 33.92C136.263 34.048 136.114 34.2614 135.943 34.56C135.773 34.816 135.751 34.88 135.879 34.752C136.519 34.1974 137.33 33.5787 138.311 32.896C139.293 32.2134 140.317 31.5307 141.383 30.848C142.493 30.1227 143.474 29.4827 144.327 28.928C143.559 29.312 142.813 29.696 142.087 30.08C141.362 30.464 140.594 30.912 139.783 31.424L140.679 30.784C141.063 30.4854 141.618 30.1227 142.343 29.696C143.069 29.2694 143.794 28.864 144.519 28.48C145.287 28.096 145.863 27.84 146.247 27.712L144.391 28.928C144.861 28.7147 145.351 28.5014 145.863 28.288C146.375 28.032 146.909 27.776 147.463 27.52C147.805 27.392 148.039 27.328 148.167 27.328C148.551 27.328 148.573 27.5627 148.231 28.032C147.933 28.5014 147.485 28.9067 146.887 29.248C145.949 29.7174 144.839 30.4427 143.559 31.424C142.279 32.4054 140.935 33.4934 139.527 34.688C138.162 35.8827 136.839 37.0774 135.559 38.272C134.279 39.424 133.191 40.448 132.295 41.344C131.399 40.6187 130.93 39.8934 130.887 39.168C130.845 38.4427 130.823 37.8027 130.823 37.248V36.992C130.823 36.864 130.823 36.7147 130.823 36.544C130.866 36.3307 130.951 36.096 131.079 35.84C131.037 35.6267 130.866 35.4774 130.567 35.392C130.269 35.264 130.141 35.1147 130.183 34.944C130.354 34.1334 130.759 33.1947 131.399 32.128C132.039 31.0614 132.765 29.952 133.575 28.8C134.429 27.648 135.282 26.5387 136.135 25.472C136.989 24.4054 137.714 23.488 138.311 22.72C138.909 21.952 139.293 21.4187 139.463 21.12C138.994 21.5467 138.205 22.272 137.095 23.296C135.986 24.2774 134.706 25.4294 133.255 26.752C131.847 28.032 130.375 29.3974 128.839 30.848C127.303 32.2987 125.853 33.728 124.487 35.136C123.122 36.5014 121.97 37.7387 121.031 38.848C120.093 39.9574 119.495 40.832 119.239 41.472ZM165.012 1.98404C166.975 1.38671 169.023 0.938711 171.156 0.640045C173.289 0.298711 175.529 0.128044 177.876 0.128044C178.431 0.128044 178.985 0.149377 179.54 0.192043C180.137 0.192043 180.713 0.213376 181.268 0.256042C180.884 0.256042 180.479 0.256042 180.052 0.256042C179.668 0.213376 179.284 0.192043 178.9 0.192043C176.809 0.192043 174.783 0.29871 172.82 0.512043C170.9 0.68271 169.257 0.917377 167.892 1.21605C167.465 1.34404 166.996 1.47204 166.484 1.60004C166.015 1.68538 165.524 1.81338 165.012 1.98404ZM170.964 42.176C170.665 42.176 170.367 42.1547 170.068 42.112C169.769 42.112 169.449 42.0907 169.108 42.048C168.127 41.8774 167.444 41.4507 167.06 40.768C166.719 40.0427 166.548 39.2747 166.548 38.464C166.548 37.6534 166.655 36.928 166.868 36.288C167.124 35.4347 167.743 34.1974 168.724 32.576C169.705 30.912 170.9 29.056 172.308 27.008C173.716 24.9174 175.209 22.7627 176.788 20.544C178.367 18.2827 179.924 16.1067 181.46 14.016C182.996 11.9254 184.383 10.0694 185.62 8.44804C186.857 6.78404 187.796 5.52538 188.436 4.67204C187.583 5.35471 186.879 6.10138 186.324 6.91204C185.812 7.68004 185.343 8.10671 184.916 8.19204C185.428 7.59471 186.111 6.80538 186.964 5.82404C187.817 4.84271 188.351 3.94671 188.564 3.13604C188.223 3.05071 187.839 3.00805 187.412 3.00805C186.985 3.00805 186.537 3.00805 186.068 3.00805C184.063 3.00805 181.631 3.17871 178.772 3.52004C175.913 3.86138 173.204 4.30938 170.644 4.86404C170.217 4.94938 169.492 5.18404 168.468 5.56804C167.444 5.90938 166.271 6.35738 164.948 6.91204C163.668 7.46671 162.388 8.10671 161.108 8.83204C159.828 9.55738 158.719 10.3467 157.78 11.2C156.884 12.0107 156.308 12.864 156.052 13.76C156.223 14.1014 156.308 14.4214 156.308 14.72C156.308 15.3174 156.009 15.616 155.412 15.616C154.9 15.616 154.345 15.3174 153.748 14.72C153.151 14.1227 152.852 13.2907 152.852 12.224C152.852 11.6694 152.937 11.136 153.108 10.624C153.321 9.89871 153.641 9.23738 154.068 8.64005C154.495 8.00005 154.985 7.40271 155.54 6.84805L155.284 6.97604L155.732 6.72004L155.54 6.84805C156.948 6.08005 158.335 5.31204 159.7 4.54404C161.108 3.77604 162.729 3.09338 164.564 2.49604C166.441 1.85604 168.532 1.34405 170.836 0.960045C173.183 0.533379 175.721 0.320045 178.452 0.320045C180.073 0.320045 181.801 0.405378 183.636 0.576042C185.471 0.746709 187.369 1.02404 189.332 1.40804C189.631 1.49338 189.78 1.47204 189.78 1.34404C189.78 1.25871 189.609 1.19471 189.268 1.15204C188.201 0.938709 187.135 0.768044 186.068 0.640045C185.001 0.469378 183.956 0.362712 182.932 0.320045C183.956 0.362712 184.959 0.448044 185.94 0.576042C186.964 0.661377 187.945 0.810711 188.884 1.02404V0.832043C188.884 0.533377 189.055 0.384045 189.396 0.384045C189.481 0.384045 189.695 0.426711 190.036 0.512043C190.377 0.640044 190.804 0.832044 191.316 1.08804C191.871 1.34405 192.404 1.64271 192.916 1.98404C194.409 1.98404 196.009 2.15471 197.716 2.49604C199.423 2.83738 201.044 3.34938 202.58 4.03204C204.116 4.71471 205.375 5.56805 206.356 6.59204C207.337 7.61604 207.828 8.81071 207.828 10.176C207.828 11.1147 207.572 12.096 207.06 13.12C207.188 13.6747 207.252 14.2294 207.252 14.784C207.252 16.1067 206.975 17.3227 206.42 18.432C205.865 19.5414 205.097 20.5867 204.116 21.568C204.585 21.1414 205.033 20.6507 205.46 20.096C205.929 19.4987 206.441 18.6667 206.996 17.6C206.612 18.7947 206.143 19.7334 205.588 20.416C205.076 21.056 204.564 21.6107 204.052 22.08C203.071 23.0614 202.004 23.8507 200.852 24.448C199.7 25.0027 198.228 25.7067 196.436 26.56C196.009 26.7307 195.455 26.9227 194.772 27.136C194.132 27.3067 193.428 27.4987 192.66 27.712C194.793 27.072 196.863 26.24 198.868 25.216C200.916 24.192 202.623 23.0187 203.988 21.696L203.476 22.144C202.111 23.3387 200.873 24.192 199.764 24.704C198.655 25.216 197.993 25.5147 197.78 25.6C196.969 25.8987 195.903 26.2614 194.58 26.688C193.257 27.1147 191.999 27.4987 190.804 27.84C189.609 28.1814 188.777 28.416 188.308 28.544L188.18 28.608C188.607 28.5654 189.033 28.5227 189.46 28.48C189.887 28.3947 190.313 28.3094 190.74 28.224C190.868 28.1814 190.996 28.1387 191.124 28.096C191.124 28.096 191.103 28.096 191.06 28.096C191.017 28.096 190.911 28.1387 190.74 28.224C188.991 28.608 187.327 28.9067 185.748 29.12C184.212 29.3334 182.847 29.44 181.652 29.44C180.969 29.44 180.543 29.3974 180.372 29.312C180.201 29.184 180.073 29.0347 179.988 28.864C179.988 28.6507 180.137 28.4587 180.436 28.288C180.521 28.2454 180.585 28.2027 180.628 28.16C180.713 28.1174 180.799 28.0747 180.884 28.032C182.804 27.6054 184.852 27.008 187.028 26.24C189.247 25.4294 191.423 24.4907 193.556 23.424C195.689 22.3147 197.609 21.1414 199.316 19.904C201.065 18.624 202.452 17.3227 203.476 16C204.543 14.6347 205.076 13.312 205.076 12.032C205.076 10.8374 204.543 9.79204 203.476 8.89605C202.452 8.00004 201.151 7.25338 199.572 6.65604C198.036 6.01604 196.521 5.54671 195.028 5.24804C194.559 5.76004 193.791 6.63471 192.724 7.87204C191.7 9.10938 190.505 10.5814 189.14 12.288C187.775 13.9947 186.324 15.808 184.788 17.728C183.295 19.648 181.823 21.5467 180.372 23.424C179.561 24.4907 178.687 25.6854 177.748 27.008C176.809 28.288 175.892 29.6107 174.996 30.976C174.143 32.2987 173.439 33.5574 172.884 34.752C172.329 35.9467 172.052 36.9707 172.052 37.824C172.052 38.2507 172.116 38.592 172.244 38.848C174.121 39.1467 175.06 39.68 175.06 40.448C175.06 40.8747 174.676 41.2587 173.908 41.6C173.183 41.984 172.201 42.176 170.964 42.176ZM163.796 2.36805H163.86L163.924 2.30404H163.988H164.052C164.095 2.26138 164.116 2.24004 164.116 2.24004C164.159 2.24004 164.18 2.24004 164.18 2.24004C164.223 2.24004 164.244 2.24004 164.244 2.24004C164.287 2.19738 164.308 2.17604 164.308 2.17604C164.351 2.17604 164.372 2.17604 164.372 2.17604C164.415 2.17604 164.436 2.17604 164.436 2.17604C164.479 2.13338 164.5 2.11205 164.5 2.11205C164.543 2.11205 164.543 2.11205 164.5 2.11205C164.543 2.11205 164.585 2.11205 164.628 2.11205H164.5L164.436 2.17604H164.372H164.308L164.244 2.24004H164.18C164.18 2.24004 164.159 2.24004 164.116 2.24004C164.116 2.24004 164.095 2.26138 164.052 2.30404C164.052 2.30404 164.031 2.30404 163.988 2.30404C163.988 2.30404 163.967 2.30404 163.924 2.30404C163.924 2.34671 163.903 2.36805 163.86 2.36805C163.86 2.36805 163.839 2.36805 163.796 2.36805ZM162.9 2.68805H162.964H163.028L163.092 2.62404C163.135 2.62404 163.156 2.62404 163.156 2.62404C163.199 2.58138 163.199 2.56004 163.156 2.56004C163.199 2.56004 163.22 2.56004 163.22 2.56004H163.156V2.62404C163.156 2.62404 163.135 2.62404 163.092 2.62404C163.049 2.62404 163.028 2.64538 163.028 2.68805C163.028 2.68805 163.007 2.68805 162.964 2.68805C163.007 2.68805 163.007 2.68805 162.964 2.68805C162.921 2.68805 162.9 2.68805 162.9 2.68805ZM155.732 6.72004C156.671 5.82404 157.759 5.05604 158.996 4.41604C160.276 3.77604 161.577 3.20004 162.9 2.68805C161.705 3.15738 160.553 3.71204 159.444 4.35204C158.335 4.94938 157.268 5.61071 156.244 6.33604L155.732 6.72004ZM204.92 42.56C204.664 42.56 204.259 42.2614 203.704 41.664C203.192 41.1094 202.659 40.4907 202.104 39.808C201.592 39.0827 201.208 38.5494 200.952 38.208C201.336 36.544 201.997 34.816 202.936 33.024C203.917 31.1894 205.048 29.3974 206.328 27.648C207.608 25.8987 208.888 24.2774 210.168 22.784C211.491 21.2907 212.643 20.032 213.624 19.008C212.899 19.5627 212.131 20.288 211.32 21.184C210.509 22.0374 209.955 22.6134 209.656 22.912C209.144 23.424 208.632 23.936 208.12 24.448C207.608 24.9174 207.139 25.3867 206.712 25.856C207.992 24.2774 209.251 22.8267 210.488 21.504C211.768 20.1814 212.685 19.3067 213.24 18.88C213.368 18.752 213.539 18.6027 213.752 18.432C214.008 18.2614 214.285 18.1547 214.584 18.112L215.096 17.536C216.248 17.5787 217.485 17.9414 218.808 18.624C220.131 19.264 221.261 20.1174 222.2 21.184C223.181 22.208 223.693 23.3814 223.736 24.704C223.736 24.8747 223.651 25.0454 223.48 25.216C223.309 25.344 223.181 25.2587 223.096 24.96C222.797 24.32 222.456 23.744 222.072 23.232C221.688 22.72 221.261 22.3147 220.792 22.016C220.365 21.76 219.917 21.632 219.448 21.632C218.936 21.632 218.467 21.8027 218.04 22.144C217.187 22.784 216.163 23.744 214.968 25.024C213.816 26.2614 212.643 27.6054 211.448 29.056C210.296 30.5067 209.251 31.9147 208.312 33.28C207.416 34.6454 206.797 35.776 206.456 36.672C206.712 36.3734 207.16 35.9467 207.8 35.392C208.44 34.8374 209.123 34.2827 209.848 33.728C210.573 33.1307 211.192 32.64 211.704 32.256C211.875 32.128 212.237 31.872 212.792 31.488C213.347 31.104 213.923 30.6987 214.52 30.272C215.16 29.8454 215.672 29.5254 216.056 29.312C216.056 29.3974 215.8 29.632 215.288 30.016C214.819 30.4 214.243 30.8267 213.56 31.296C212.877 31.7654 212.237 32.192 211.64 32.576C211.085 32.96 210.744 33.216 210.616 33.344C210.147 33.7707 209.592 34.2614 208.952 34.816C208.355 35.3707 207.8 35.8827 207.288 36.352C206.776 36.8214 206.435 37.1627 206.264 37.376C206.179 37.5467 206.157 37.6534 206.2 37.696C206.243 37.7387 206.328 37.6747 206.456 37.504C206.84 36.9494 207.416 36.352 208.184 35.712C208.952 35.072 209.784 34.432 210.68 33.792C211.619 33.1094 212.451 32.4907 213.176 31.936C214.029 31.296 214.797 30.7414 215.48 30.272C216.205 29.76 216.845 29.2907 217.4 28.864C217.443 27.968 217.763 27.3494 218.36 27.008C219 26.6667 219.491 26.56 219.832 26.688C220.088 26.7734 220.472 26.944 220.984 27.2C221.539 27.4134 222.029 27.6907 222.456 28.032C222.883 28.3307 223.011 28.672 222.84 29.056C222.541 29.7387 222.307 30.8054 222.136 32.256C222.008 33.664 221.944 34.9654 221.944 36.16C221.944 37.8667 222.477 38.72 223.544 38.72C224.099 38.72 224.845 38.4214 225.784 37.824C226.125 37.6107 226.381 37.504 226.552 37.504C226.68 37.504 226.744 37.568 226.744 37.696C226.744 37.8667 226.637 38.1227 226.424 38.464C226.211 38.7627 226.061 38.9547 225.976 39.04C225.464 39.5947 224.845 40.1067 224.12 40.576C223.437 41.0027 222.733 41.216 222.008 41.216C221.709 41.216 221.411 41.1734 221.112 41.088C220.813 41.0027 220.515 40.8534 220.216 40.64C219.149 39.9147 218.381 38.8054 217.912 37.312C217.485 35.8187 217.272 34.5387 217.272 33.472C217.272 33.216 217.272 32.9814 217.272 32.768C217.315 32.5547 217.357 32.3627 217.4 32.192C216.931 32.576 216.141 33.2374 215.032 34.176C213.965 35.072 212.771 36.096 211.448 37.248C210.125 38.3574 208.867 39.4027 207.672 40.384C206.477 41.3654 205.56 42.0907 204.92 42.56ZM228.614 45.312C227.676 44.5014 227.014 43.7334 226.63 43.008C226.289 42.3254 226.118 41.664 226.118 41.024C226.118 40.768 226.161 40.5334 226.246 40.32C226.289 40.064 226.332 39.808 226.374 39.552C226.588 38.912 227.078 37.824 227.846 36.288C228.657 34.752 229.617 33.0027 230.726 31.04C231.878 29.0774 233.094 27.0934 234.374 25.088C235.654 23.04 236.87 21.2054 238.022 19.584C237.638 19.6694 237.233 19.7334 236.806 19.776C236.422 19.8187 236.038 19.84 235.654 19.84C234.588 19.84 233.628 19.776 232.774 19.648C231.964 19.4774 231.494 19.3707 231.366 19.328C230.94 19.2427 230.662 18.9654 230.534 18.496C230.449 17.984 230.428 17.472 230.47 16.96C230.342 16.9174 230.257 16.8534 230.214 16.768C230.172 16.6827 230.129 16.6187 230.086 16.576C230.086 16.4907 230.065 16.4054 230.022 16.32C230.022 16.2347 230.022 16.1494 230.022 16.064C230.022 15.6374 230.129 15.36 230.342 15.232C230.598 15.104 230.876 15.04 231.174 15.04C231.516 15.04 231.878 15.0827 232.262 15.168C232.689 15.2107 233.116 15.232 233.542 15.232C234.268 15.232 235.036 15.168 235.846 15.04C236.657 14.8694 237.126 14.656 237.254 14.4C237.382 14.144 237.51 14.016 237.638 14.016C237.724 14.016 237.852 14.2507 238.022 14.72C238.022 14.7627 238.022 14.8054 238.022 14.848C238.065 14.8907 238.086 14.9547 238.086 15.04C238.086 15.424 237.916 15.8294 237.574 16.256H240.326C241.052 15.3174 241.841 14.272 242.694 13.12C243.59 11.9254 244.465 10.752 245.318 9.60004C246.214 8.40538 247.004 7.33871 247.686 6.40004C248.412 5.46138 248.945 4.73604 249.286 4.22404C249.116 4.05338 249.03 3.84004 249.03 3.58405C249.03 3.24271 249.116 2.90138 249.286 2.56004C249.5 2.21871 249.606 1.96271 249.606 1.79205C249.606 1.66404 249.564 1.51471 249.478 1.34404C249.436 1.17338 249.414 1.02404 249.414 0.896046C249.414 0.554712 249.606 0.384045 249.99 0.384045C250.076 0.384045 250.289 0.426711 250.63 0.512043C251.185 0.68271 251.889 1.02404 252.742 1.53605C253.638 2.04804 254.406 2.62404 255.046 3.26405C255.686 3.90405 255.878 4.56538 255.622 5.24804C255.324 5.58938 254.79 6.18671 254.022 7.04004C253.297 7.89338 252.465 8.87471 251.526 9.98405C250.588 11.0507 249.649 12.16 248.71 13.312C247.814 14.4214 247.004 15.4454 246.278 16.384C247.43 16.2987 248.604 16.2347 249.798 16.192C251.036 16.1494 252.124 16.1067 253.062 16.064C254.044 16.0214 254.684 16 254.982 16C255.75 16 256.134 16.1067 256.134 16.32C256.134 16.4907 255.964 16.6614 255.622 16.832C255.281 17.0027 254.918 17.1307 254.534 17.216C254.492 17.1734 253.894 17.216 252.742 17.344C251.633 17.472 250.524 17.6 249.414 17.728C248.902 17.7707 248.241 17.8347 247.43 17.92C246.662 17.9627 245.916 18.0054 245.19 18.048L244.934 18.304C245.873 18.2614 246.918 18.2187 248.07 18.176C249.265 18.0907 250.204 18.048 250.886 18.048C250.161 18.176 249.201 18.2827 248.006 18.368C246.812 18.4107 245.66 18.5174 244.55 18.688C243.697 19.6267 242.737 20.8 241.67 22.208C240.646 23.5734 239.558 25.0454 238.406 26.624C237.297 28.16 236.23 29.6747 235.206 31.168C234.182 32.6187 233.265 33.92 232.454 35.072C231.644 36.224 231.025 37.0774 230.598 37.632C231.196 37.4187 231.9 37.12 232.71 36.736C233.521 36.3094 234.332 35.8614 235.142 35.392C237.02 34.1547 239.025 32.8107 241.158 31.36C243.334 29.9094 245.233 28.6507 246.854 27.584C247.878 26.944 248.881 26.2614 249.862 25.536C250.886 24.768 251.868 23.9787 252.806 23.168C252.892 23.0827 252.934 23.0827 252.934 23.168C252.977 23.2534 252.956 23.3387 252.87 23.424L250.438 25.6C250.481 25.7707 250.502 25.9414 250.502 26.112C250.502 26.24 250.502 26.3894 250.502 26.56C250.502 26.944 250.438 27.3067 250.31 27.648C250.225 27.9894 250.033 28.2667 249.734 28.48C249.009 28.9494 247.9 29.7174 246.406 30.784C244.956 31.8507 243.313 33.088 241.478 34.496C239.644 35.8614 237.83 37.248 236.038 38.656C234.289 40.064 232.732 41.3654 231.366 42.56C230.001 43.7547 229.084 44.672 228.614 45.312ZM229.702 38.912L232.774 36.992L230.15 38.208L229.702 38.912ZM255.926 41.92C254.988 41.92 253.985 41.5574 252.918 40.832C251.852 40.1067 250.934 39.2534 250.166 38.272C249.441 37.2907 249.078 36.3947 249.078 35.584C249.078 34.048 249.526 32.4054 250.422 30.656C251.361 28.864 252.556 27.1147 254.006 25.408C255.5 23.7014 257.078 22.1867 258.742 20.864C260.406 19.5414 262.006 18.5814 263.542 17.984C263.969 17.8134 264.353 17.7067 264.694 17.664C265.036 17.6214 265.292 17.6 265.462 17.6C265.974 17.6 266.572 17.9627 267.254 18.688C267.937 19.3707 268.556 20.1174 269.11 20.928C269.665 21.7387 269.985 22.3574 270.07 22.784C270.07 23.4667 269.665 24.2987 268.854 25.28C268.086 26.2187 267.062 27.2 265.782 28.224C264.502 29.2054 263.116 30.1227 261.622 30.976C260.172 31.8294 258.764 32.512 257.398 33.024C256.033 33.4934 254.86 33.7067 253.878 33.664C253.196 34.9014 252.854 35.9254 252.854 36.736C252.854 37.1627 252.961 37.5467 253.174 37.888C253.388 38.1867 253.814 38.3147 254.454 38.272C255.478 37.9307 256.758 37.312 258.294 36.416C259.83 35.52 261.473 34.5174 263.222 33.408C265.014 32.256 266.764 31.1467 268.47 30.08C270.22 28.9707 271.777 28.0534 273.142 27.328C273.868 26.944 274.401 26.752 274.742 26.752C275.041 26.752 275.19 26.8587 275.19 27.072C275.19 27.2427 274.998 27.52 274.614 27.904C274.273 28.288 273.74 28.672 273.014 29.056C272.63 29.2694 272.204 29.5254 271.734 29.824C271.265 30.1227 270.774 30.464 270.262 30.848C269.068 31.7014 267.788 32.6827 266.422 33.792C265.1 34.9014 263.756 36.0107 262.39 37.12C261.068 38.2294 259.83 39.2107 258.678 40.064C257.569 40.9174 256.652 41.536 255.926 41.92ZM255.222 31.552C256.502 31.0827 257.868 30.4214 259.318 29.568C260.769 28.7147 262.134 27.8187 263.414 26.88C264.694 25.8987 265.718 25.024 266.486 24.256L266.806 23.936C266.806 23.8507 266.55 24 266.038 24.384L260.662 28.352C260.62 28.3947 260.556 28.416 260.47 28.416C260.428 28.416 260.449 28.3734 260.534 28.288C260.62 28.16 260.769 28.032 260.982 27.904C261.836 27.3067 262.71 26.6454 263.606 25.92C264.502 25.152 265.356 24.4267 266.166 23.744C267.19 22.9334 267.702 22.4427 267.702 22.272C266.721 22.272 265.462 22.7414 263.926 23.68C262.39 24.6187 260.833 25.792 259.254 27.2C257.718 28.608 256.374 30.0587 255.222 31.552ZM275.174 43.2C273.98 42.2187 272.956 41.3014 272.102 40.448C271.292 39.5947 270.886 38.7627 270.886 37.952C270.886 37.7387 270.908 37.568 270.95 37.44C271.377 35.9467 272.145 34.176 273.254 32.128C274.406 30.08 275.75 27.8827 277.286 25.536C278.865 23.1467 280.529 20.7574 282.278 18.368C284.028 15.936 285.734 13.632 287.398 11.456C289.105 9.23738 290.662 7.27471 292.07 5.56804C293.478 3.81871 294.609 2.45338 295.462 1.47205C296.316 0.490712 296.764 4.57764e-05 296.806 4.57764e-05C297.233 0.128044 297.873 0.55471 298.726 1.28004C299.58 1.96271 300.156 2.66671 300.454 3.39204C300.54 3.47738 300.582 3.56271 300.582 3.64804C300.625 4.16004 300.924 4.62938 301.478 5.05605C302.033 5.48271 302.31 5.95204 302.31 6.46404C302.31 7.91471 301.756 9.49338 300.646 11.2C299.537 12.864 298.086 14.5707 296.294 16.32C294.502 18.0694 292.561 19.7974 290.47 21.504C288.38 23.168 286.31 24.7254 284.262 26.176C282.257 27.584 280.508 28.8214 279.014 29.888C277.734 31.68 276.966 33.28 276.71 34.688C276.497 36.096 276.412 37.1414 276.454 37.824C278.545 36.416 280.529 34.8374 282.406 33.088C282.876 32.704 283.558 32.1707 284.454 31.488C285.393 30.7627 286.353 30.0587 287.334 29.376C288.316 28.6934 289.062 28.2027 289.574 27.904C290.044 27.648 290.406 27.4347 290.662 27.264C290.961 27.0934 290.94 27.136 290.598 27.392C289.574 28.2027 288.209 29.2267 286.502 30.464C288.934 28.8427 291.366 27.648 293.798 26.88C294.268 26.7094 294.63 26.624 294.886 26.624C295.313 26.624 295.292 26.8587 294.822 27.328C294.353 27.7547 293.798 28.2027 293.158 28.672C290.214 30.8054 287.185 33.0454 284.07 35.392C280.956 37.7387 277.99 40.3414 275.174 43.2ZM281.574 26.368C283.196 25.1734 284.732 23.8934 286.182 22.528C287.633 21.12 289.084 19.7547 290.534 18.432C293.052 16.0427 295.078 13.7174 296.614 11.456C298.193 9.19471 299.196 7.18938 299.622 5.44004C298.854 6.29338 297.809 7.46671 296.486 8.96004C295.206 10.4107 293.777 12.0534 292.198 13.888C290.62 15.68 288.998 17.536 287.334 19.456C285.713 21.376 284.177 23.2107 282.726 24.96C282.598 25.088 282.428 25.28 282.214 25.536C282.044 25.7494 281.83 26.0267 281.574 26.368ZM277.542 38.464C278.012 37.9947 278.609 37.44 279.334 36.8C280.06 36.16 280.892 35.3707 281.83 34.432C282.257 34.0054 282.897 33.408 283.75 32.64C284.646 31.872 285.564 31.1467 286.502 30.464C284.796 31.6587 283.302 32.768 282.022 33.792C280.742 34.816 279.569 35.776 278.502 36.672L277.606 37.76C277.35 38.0587 277.244 38.2934 277.286 38.464C277.329 38.6347 277.414 38.6347 277.542 38.464Z" fill="black"/>
</svg>
