<svg width="56" height="56" viewBox="0 0 56 56" fill="none" xmlns="http://www.w3.org/2000/svg">
<path d="M51.5188 0.00502394H4.79489C4.19264 -0.023191 3.59075 0.0676432 3.02365 0.272327C2.45656 0.477012 1.93541 0.791526 1.49003 1.19787C1.04465 1.60421 0.683794 2.09439 0.428114 2.64036C0.172435 3.18633 0.0269534 3.77737 0 4.37963V51.2054C0.0352803 52.4659 0.55178 53.665 1.44346 54.5566C2.33515 55.4482 3.53435 55.9647 4.79489 56H51.5188C52.7443 55.9454 53.8996 55.4129 54.737 54.5166C55.5745 53.6204 56.0274 52.4317 55.9987 51.2054V4.37963C56.0087 3.79345 55.8989 3.2114 55.676 2.66917C55.453 2.12694 55.1216 1.63597 54.7022 1.22636C54.2827 0.816745 53.784 0.497133 53.2366 0.287116C52.6892 0.0770996 52.1046 -0.0188938 51.5188 0.00502394ZM17.4996 46.6908H9.34479V21.7381H17.4996V46.6908ZM13.6147 17.9584C13.0456 17.9782 12.4786 17.8802 11.9493 17.6704C11.4199 17.4606 10.9397 17.1437 10.5387 16.7394C10.1377 16.3352 9.82466 15.8524 9.6192 15.3214C9.41374 14.7904 9.32031 14.2226 9.34479 13.6538C9.31962 13.0788 9.41494 12.5049 9.6246 11.9689C9.83427 11.4329 10.1537 10.9467 10.5623 10.5414C10.9709 10.1361 11.4598 9.82064 11.9975 9.61533C12.5352 9.41002 13.1099 9.31937 13.6847 9.34918C14.2537 9.32936 14.8208 9.42741 15.3501 9.63719C15.8795 9.84696 16.3597 10.1639 16.7607 10.5682C17.1617 10.9724 17.4747 11.4552 17.6802 11.9862C17.8856 12.5172 17.9791 13.085 17.9546 13.6538C17.9798 14.2288 17.8844 14.8027 17.6748 15.3387C17.4651 15.8747 17.1457 16.3609 16.7371 16.7662C16.3284 17.1715 15.8396 17.487 15.3019 17.6923C14.7642 17.8976 14.1895 17.9882 13.6147 17.9584ZM46.6889 46.6908H38.4991V33.0421C38.4991 29.7873 37.3441 27.5476 34.4392 27.5476C33.5368 27.5554 32.6589 27.8421 31.9258 28.3684C31.1927 28.8947 30.6403 29.6348 30.3443 30.4873C30.1138 31.1257 30.0185 31.805 30.0643 32.4821V46.6908H22.0145V21.7381H30.0643V25.2378C30.78 23.923 31.8452 22.8318 33.1423 22.0845C34.4393 21.3372 35.9177 20.9629 37.4141 21.0031C42.699 21.0031 46.6889 24.5028 46.6889 31.9572V46.6908Z" fill="black"/>
</svg>
