<svg width="56" height="56" viewBox="0 0 56 56" fill="none" xmlns="http://www.w3.org/2000/svg">
<path d="M28 55.9972C43.4644 55.9972 56 43.4622 56 27.9986C56 12.535 43.4644 0 28 0C12.5356 0 0 12.535 0 27.9986C0 39.2148 6.5968 48.8912 16.1224 53.3597L22.5344 23.2164C22.6987 22.5002 23.138 21.8772 23.7575 21.4819C24.3771 21.0867 25.1272 20.9508 25.846 21.1037C26.5649 21.2565 27.1948 21.6859 27.5998 22.2991C28.0049 22.9122 28.1526 23.6601 28.0112 24.3812C27.244 27.9986 26.572 29.3985 26.6028 31.0784C26.6504 33.7103 27.3672 35.1158 28.0616 35.8438C28.77 36.5858 29.792 36.9861 31.1276 36.9637C32.4912 36.9358 34.034 36.457 35.4004 35.5946C38.0576 33.9259 39.2 31.0644 39.2 27.9986C39.1981 26.3348 38.8256 24.6924 38.1094 23.1906C37.3933 21.6888 36.3515 20.3655 35.0598 19.3167C33.7681 18.268 32.2589 17.5202 30.642 17.1277C29.0251 16.7352 27.3411 16.7079 25.7123 17.0478C24.0835 17.3876 22.5509 18.0861 21.2259 19.0924C19.9009 20.0987 18.8167 21.3876 18.0522 22.8653C17.2877 24.3431 16.8621 25.9726 16.8063 27.6355C16.7505 29.2983 17.0659 30.9527 17.7296 32.4784C18.0002 33.1539 17.9972 33.9082 17.7211 34.5815C17.4451 35.2548 16.9178 35.7942 16.2509 36.0854C15.584 36.3766 14.8299 36.3967 14.1484 36.1415C13.4669 35.8863 12.9116 35.3759 12.6 34.7183C11.4854 32.1618 11.0248 29.3681 11.2597 26.5892C11.4947 23.8102 12.4178 21.1335 13.9459 18.8005C15.4739 16.4675 17.5587 14.5515 20.0123 13.2256C22.4659 11.8996 25.211 11.2053 28 11.2053C30.789 11.2053 33.5341 11.8996 35.9877 13.2256C38.4413 14.5515 40.5261 16.4675 42.0541 18.8005C43.5822 21.1335 44.5053 23.8102 44.7403 26.5892C44.9752 29.3681 44.5146 32.1618 43.4 34.7183C42.3696 37.0925 40.488 39.0132 38.3824 40.3376C36.2684 41.6675 33.7428 42.5187 31.2284 42.5635C28.9352 42.6055 26.5468 41.9699 24.6232 40.3012L21.448 55.23C23.548 55.734 25.7432 56 27.9972 56L28 55.9972Z" fill="black"/>
</svg>
