<svg width="48" height="48" viewBox="0 0 48 48" fill="none" xmlns="http://www.w3.org/2000/svg">
<path d="M45.2 48C39.6444 48 34.1556 46.7893 28.7333 44.368C23.3111 41.9467 18.3778 38.5129 13.9333 34.0667C9.48889 29.6204 6.056 24.6871 3.63467 19.2667C1.21333 13.8462 0.00177778 8.35733 0 2.8C0 2 0.266667 1.33333 0.8 0.8C1.33333 0.266667 2 0 2.8 0H13.6C14.2222 0 14.7778 0.211555 15.2667 0.634666C15.7556 1.05778 16.0444 1.55733 16.1333 2.13333L17.8667 11.4667C17.9556 12.1778 17.9333 12.7778 17.8 13.2667C17.6667 13.7556 17.4222 14.1778 17.0667 14.5333L10.6 21.0667C11.4889 22.7111 12.544 24.2996 13.7653 25.832C14.9867 27.3644 16.3316 28.8427 17.8 30.2667C19.1778 31.6444 20.6222 32.9227 22.1333 34.1013C23.6444 35.28 25.2444 36.3573 26.9333 37.3333L33.2 31.0667C33.6 30.6667 34.1227 30.3671 34.768 30.168C35.4133 29.9689 36.0462 29.9129 36.6667 30L45.8667 31.8667C46.4889 32.0444 47 32.3671 47.4 32.8347C47.8 33.3022 48 33.824 48 34.4V45.2C48 46 47.7333 46.6667 47.2 47.2C46.6667 47.7333 46 48 45.2 48Z" fill="black"/>
</svg>
