<svg width="11" height="391" viewBox="0 0 11 391" fill="none" xmlns="http://www.w3.org/2000/svg">
<path d="M5.33337 -8.15392e-05C2.38786 -8.16679e-05 4.06599e-05 2.38773 4.05312e-05 5.33325C4.04024e-05 8.27877 2.38786 10.6666 5.33337 10.6666C8.27889 10.6666 10.6667 8.27877 10.6667 5.33325C10.6667 2.38773 8.27889 -8.14104e-05 5.33337 -8.15392e-05ZM5.33336 380C2.38784 380 2.40496e-05 382.388 2.39208e-05 385.333C2.37921e-05 388.279 2.38784 390.667 5.33336 390.667C8.27888 390.667 10.6667 388.279 10.6667 385.333C10.6667 382.388 8.27888 380 5.33336 380ZM5.33337 5.33325L4.33337 5.33325L4.33336 385.333L5.33336 385.333L6.33336 385.333L6.33337 5.33325L5.33337 5.33325Z" fill="black"/>
</svg>
