<svg width="48" height="48" viewBox="0 0 48 48" fill="none" xmlns="http://www.w3.org/2000/svg">
<path fill-rule="evenodd" clip-rule="evenodd" d="M19.4646 4.8096C15.5023 5.75091 11.928 7.89438 9.23139 10.9463C6.53478 13.9983 4.84783 17.8094 4.40166 21.8574H13.6095C14.2368 15.7897 16.2457 9.96201 19.4646 4.8096ZM28.5354 4.8096C31.7663 9.96913 33.7694 15.8016 34.3905 21.8574H43.5983C43.1522 17.8094 41.4652 13.9983 38.7686 10.9463C36.072 7.89438 32.4977 5.75091 28.5354 4.8096ZM30.078 21.8574C29.4044 16.0589 27.3173 10.5145 24 5.71118C20.6827 10.5145 18.5956 16.0589 17.922 21.8574H30.078ZM17.922 26.1426H30.078C29.4044 31.9411 27.3173 37.4855 24 42.2888C20.6827 37.4855 18.5956 31.9411 17.922 26.1426ZM13.6095 26.1426H4.40166C4.84783 30.1906 6.53478 34.0017 9.23139 37.0537C11.928 40.1056 15.5023 42.2491 19.4646 43.1904C16.2337 38.0309 14.2306 32.1984 13.6095 26.1426ZM28.5354 43.1904C31.7663 38.0309 33.7694 32.1984 34.3905 26.1426H43.5983C43.1522 30.1906 41.4652 34.0017 38.7686 37.0537C36.072 40.1056 32.4977 42.2491 28.5354 43.1904ZM24 48C27.1517 48 30.2726 47.3792 33.1844 46.1731C36.0962 44.967 38.742 43.1992 40.9706 40.9706C43.1992 38.742 44.967 36.0962 46.1731 33.1844C47.3792 30.2726 48 27.1517 48 24C48 20.8483 47.3792 17.7274 46.1731 14.8156C44.967 11.9038 43.1992 9.25804 40.9706 7.02944C38.742 4.80083 36.0962 3.033 33.1844 1.82689C30.2726 0.620778 27.1517 -4.69644e-08 24 0C17.6348 9.48488e-08 11.5303 2.52856 7.02944 7.02944C2.52856 11.5303 0 17.6348 0 24C0 30.3652 2.52856 36.4697 7.02944 40.9706C11.5303 45.4714 17.6348 48 24 48Z" fill="black"/>
</svg>
